<svg xmlns="http://www.w3.org/2000/svg" width="40" height="40" viewBox="0 0 40 40" style="enable-background:new 0 0 40 40;" xml:space="preserve">
	<style>
		.favicon__logo {
			fill: black;
		}
		@media (prefers-color-scheme: dark) {
			.favicon__logo {
				fill: white;
			}
		}
	</style>
	<g class="favicon__logo">
		<path
			d="M15,8.9c0.6,0.3,1.3,0.5,2,0.6c0,0,0.1,0.4,0.4,0.4c0,0-0.4,0.3,0,0.5l0,0.1
			c0,0-0.6,0.8,0.2,1l0.1,0.4c0.4-0.1,0.9-0.1,1.3,0c-0.3,0-0.6,0.1-0.9,0.2c-7.3,2.1-11.6,9.7-9.5,17c2.1,7.3,9.7,11.6,17,9.5
			c2.4-0.7,4.6-2,6.3-3.9c0.1,0,0.2,0.1,0.2,0c-0.1-0.1-0.1-0.2-0.3-0.1c0,0.1,0,0.1,0.1,0.1c-0.7-0.1-1.4-0.4-2-0.9
			c-4.7,4.4-12.1,4.2-16.5-0.5C9,28.7,9.2,21.3,13.9,16.8c4.5-4.2,11.6-4.2,16,0l0.1,0c0.6-0.4,1.2-0.7,1.9-0.8
			c-3-3.2-7.3-4.8-11.6-4.4l-0.1-0.3L20.3,11c0,0,0.5-0.4-0.3-0.9l0-0.1c0,0,0.4-0.4-0.1-0.5c0.2-0.2,0.2-0.4,0.2-0.6
			c0.6-0.3,1.1-0.7,1.5-1.2l0.2,0c0,0,2.4-2,1.9-4.1c0,0-0.6-3.9-6.7-2.7c0,0-5.9,1-5.3,5.1C11.7,5.8,12,8.1,15,8.9 M23.7,38.6
			L23.7,38.6L23.7,38.6c-11.4,1-14.6-9.2-14.6-9.2C13.8,39,22.8,38.7,23.7,38.6 M20.7,11.9c4-0.2,7.9,1.3,10.8,4.2L31,16.2
			C28.4,13.4,24.6,11.8,20.7,11.9L20.7,11.9L20.7,11.9 M18.7,0.8c5.8,0,4.4,4.4,4.4,4.4C23.6,1.1,19.5,0.8,18.7,0.8l-0.2,0
			C18.5,0.8,18.6,0.8,18.7,0.8 M17.1,1.9c1.5-0.3,3.1-0.1,4.5,0.6c0,0,1.9,1.4-0.1,3.4c0.1,0.2,0.1,0.5,0.1,0.8
			c0-0.2-0.1-0.5-0.2-0.6h0c0,0-0.9-0.5-1.3,0.3l0.1-0.7c0-0.1,0-0.1,0-0.2L20,5c0-0.1,0-0.1-0.1-0.2l-1-0.2c-0.1,0-0.2,0-0.2,0
			l-2,0.4c-0.1,0-0.1,0-0.2,0.1l-0.8,0.6c0,0-0.1,0.1-0.1,0.2l0.1,0.4c0,0.1,0.1,0.2,0.2,0.3L16.2,7c-0.5-0.2-1.2,0-1.4,0.5
			c-0.1,0.2-0.1,0.4-0.1,0.6c-0.1-0.2-0.1-0.5-0.1-0.7c-0.4-0.2-1.5-0.7-1.7-1.7C12.9,5.7,12.4,3.2,17.1,1.9"/>
		<path
			d="M28.3,27.4c-1.2,3.6-5.1,5.6-8.7,4.4c-3.6-1.2-5.6-5.1-4.4-8.7c0.3-1,0.9-2,1.7-2.7
			c0,0.1,0.1,0.3,0.2,0.4c0.2,0.2,0.5,0.3,0.8,0.1l3.6,4.3c0,0.1-0.1,0.2-0.1,0.3c0,0.3,0.2,0.5,0.5,0.5c0.3,0,0.5-0.2,0.5-0.5
			c0-0.2-0.1-0.4-0.3-0.5l-0.6-3.2c0.3-0.1,0.4-0.4,0.4-0.7c0-0.2-0.2-0.4-0.3-0.5c-0.3-0.2-0.5-0.5-0.6-0.9l0,0v0c0,0,0,0,0,0
			c0,0.4-0.1,0.7-0.3,1.1c-0.1,0.1-0.1,0.3-0.1,0.4c0.1,0.3,0.3,0.5,0.6,0.5l0.6,3.1l0,0l-3.6-4.3c0.2-0.2,0.1-0.6,0-0.8
			c-0.1-0.1-0.2-0.2-0.4-0.2c3.1-2.3,7.4-1.6,9.6,1.4c0.3,0.4,0.6,0.9,0.8,1.3c0-0.2,0-0.3,0-0.5c-1.8-3.5-6.1-4.9-9.6-3.1
			c-0.4,0.2-0.8,0.5-1.2,0.7c-0.3,0-0.5-0.2-0.7-0.4l0,0l0,0c0,0,0,0,0,0c0.1,0.2,0.2,0.5,0.3,0.8c-2.9,2.7-3,7.2-0.3,10.1
			s7.2,3,10.1,0.3c0.8-0.7,1.4-1.6,1.7-2.5C28.3,27.8,28.3,27.6,28.3,27.4 M20.9,21.5c-0.1-0.2-0.1-0.4,0.1-0.5
			c0.2-0.1,0.4-0.1,0.5,0.1c0.1,0.2,0.1,0.4-0.1,0.5C21.2,21.7,21,21.7,20.9,21.5C20.9,21.5,20.9,21.5,20.9,21.5 M17.9,20.4
			c0,0.2-0.2,0.4-0.4,0.4c-0.2,0-0.4-0.2-0.4-0.4c0-0.2,0.2-0.4,0.4-0.4C17.8,20,17.9,20.2,17.9,20.4C17.9,20.4,17.9,20.4,17.9,20.4
			"/>
		<path d="M19,15.7c0,0,0.1,0,0.1,0l0,0l-0.7,0.1l0,0h0c0,0,0.1,0,0.1,0c0,0,0.1,0.1,0.1,0.1l0.1,0.1
			l0.4,0.4L19,16.8c-0.1,0.1-0.1,0.2-0.2,0.3c0,0,0,0.1-0.1,0.1c0,0-0.1,0-0.1,0l0,0l0.5-0.1l0,0c0,0-0.1,0-0.1,0c0,0-0.1,0-0.1-0.1
			c0,0,0-0.1,0-0.1c0,0,0-0.1,0.1-0.1l0.2-0.4l0.3,0.3c0,0,0,0,0.1,0.1c0,0,0,0,0,0c0,0,0,0.1,0,0.1c0,0-0.1,0-0.1,0.1l0,0l0.7-0.2
			l0,0c0,0-0.1,0-0.1,0c0,0-0.1,0-0.1,0c-0.1,0-0.2-0.1-0.2-0.2l-0.5-0.5l0.2-0.3l0.1-0.1c0-0.1,0.1-0.2,0.1-0.2c0,0,0.1,0,0.1,0
			l0,0l-0.5,0.1l0,0c0,0,0.1,0,0.1,0c0,0,0.1,0,0.1,0.1c0,0,0,0.1,0,0.1c0,0.1-0.1,0.1-0.1,0.2l-0.1,0.2L19.1,16
			C19,15.9,19,15.9,19,15.7C18.9,15.8,19,15.7,19,15.7"/>
		<path d="M20.6,15.4C20.6,15.4,20.7,15.4,20.6,15.4L20.6,15.4L20,15.5l0,0c0,0,0.1,0,0.1,0
			c0,0,0.1,0,0.1,0c0,0,0.1,0,0.1,0.1c0,0.1,0,0.1,0,0.2l0.2,0.8c0,0.1,0,0.1,0,0.2c0,0,0,0.1,0,0.1c0,0,0,0-0.1,0.1
			c0,0-0.1,0-0.1,0l0,0l0.7-0.1l0,0c0,0-0.1,0-0.1,0c0,0-0.1,0-0.1,0c0,0,0,0,0-0.1c0,0,0-0.1,0-0.1l-0.2-0.8c0,0,0-0.1,0-0.1
			C20.5,15.6,20.5,15.5,20.6,15.4C20.6,15.5,20.6,15.4,20.6,15.4"/>
		<path d="M20.8,15.4c0,0,0.1,0,0.1,0c0.1,0,0.1,0.1,0.1,0.1c0,0.1,0,0.1,0,0.2l0.2,0.8
			c0,0.1,0,0.1,0,0.2c0,0,0,0.1,0,0.1c0,0,0,0-0.1,0.1c0,0-0.1,0-0.1,0l0,0l0.7-0.1l0,0c0,0-0.1,0-0.1,0c0,0-0.1,0-0.1,0
			c0,0,0,0,0-0.1c0,0,0-0.1,0-0.1l-0.2-0.8c0,0,0-0.1,0-0.1c0,0,0-0.1,0-0.1c0,0,0,0,0.1-0.1c0,0,0.1,0,0.1,0l0,0L20.8,15.4
			L20.8,15.4z"/>
		<path d="M14.3,18.7L14.3,18.7c0.1-0.1,0.1-0.1,0.1-0.1c0.1,0,0.1,0,0.2,0l0.1,0l0.6,0.1l0,0.4
			c0,0.1,0,0.2,0,0.3c0,0,0,0.1,0,0.1c0,0,0,0.1-0.1,0.1l0,0l0.4-0.4l0,0c0,0-0.1,0.1-0.1,0.1c0,0-0.1,0-0.1,0c0,0,0-0.1,0-0.1
			c0,0,0-0.1,0-0.1l0-0.4l0.5,0.1c0,0,0.1,0,0.1,0c0,0,0,0,0,0c0,0,0,0.1,0,0.1c0,0,0,0.1-0.1,0.1l0,0l0.6-0.5l0,0
			c0,0-0.1,0-0.1,0.1c0,0-0.1,0-0.1,0c-0.1,0-0.2,0-0.3,0l-0.7-0.2l0-0.4l0-0.1c0-0.1,0-0.2,0-0.3c0,0,0-0.1,0.1-0.1l0,0L15,18l0,0
			c0,0,0.1,0,0.1-0.1c0,0,0.1,0,0.1,0c0,0,0,0.1,0,0.1c0,0.1,0,0.1,0,0.2l0,0.3L15,18.5c-0.1,0-0.1,0-0.2-0.1c0,0,0-0.1,0-0.1
			c0,0,0-0.1,0.1-0.1l0,0L14.3,18.7L14.3,18.7z"/>
		<path d="M15.5,17.6C15.6,17.6,15.6,17.6,15.5,17.6c0.1-0.1,0.1-0.1,0.2-0.1c0,0,0.1,0,0.1,0
			c0,0,0.1,0.1,0.1,0.1l0.5,0.6c0,0,0.1,0.1,0.1,0.1c0,0,0,0.1,0,0.1c0,0,0,0.1,0,0.1c0,0,0,0.1-0.1,0.1l0,0l0.5-0.5l0,0
			c0,0-0.1,0-0.1,0.1c0,0-0.1,0-0.1,0c0,0-0.1,0-0.1,0c0,0-0.1-0.1-0.1-0.1l-0.5-0.6c0,0-0.1-0.1-0.1-0.1c0,0,0-0.1,0-0.1
			c0,0,0-0.1,0-0.1c0,0,0-0.1,0.1-0.1l0,0L15.5,17.6L15.5,17.6z"/>
		<path d="M12.2,22.3L12,23l0,0c0,0,0,0,0,0c0,0,0-0.1,0.1-0.1c0,0,0.1-0.1,0.1-0.1l0.1,0l0.6-0.2
			l0.2,0.4c0.1,0.1,0.1,0.2,0.2,0.3c0,0,0,0.1,0,0.1c0,0,0,0.1,0,0.1l0,0l0.2-0.5l0,0c0,0,0,0.1-0.1,0.1c0,0-0.1,0-0.1,0
			c0,0-0.1,0-0.1-0.1c0,0-0.1-0.1-0.1-0.1L13,22.6l0.5-0.1c0,0,0.1,0,0.1,0c0,0,0,0,0,0c0,0,0.1,0.1,0.1,0.1c0,0,0,0.1,0,0.1l0,0
			l0.2-0.7l0,0c0,0,0,0.1,0,0.1c0,0,0,0-0.1,0.1c-0.1,0-0.2,0.1-0.3,0.1l-0.6,0.2l-0.2-0.3L12.6,22c-0.1-0.1-0.1-0.1-0.1-0.2
			c0,0,0-0.1,0-0.1l0,0l-0.2,0.5l0,0c0,0,0-0.1,0-0.1c0,0,0.1,0,0.1,0c0,0,0.1,0,0.1,0.1c0,0.1,0.1,0.1,0.1,0.2l0.1,0.2l-0.3,0.1
			c-0.1,0-0.1,0-0.2,0c0,0-0.1,0-0.1-0.1C12.2,22.4,12.2,22.3,12.2,22.3L12.2,22.3z"/>
		<path d="M13.6,27.9C13.6,27.9,13.6,28,13.6,27.9c0.1,0,0.1,0.1,0.2,0.1c0,0,0,0.1,0,0.1l0,0
			l-0.1-0.7l0,0c0,0,0,0.1,0,0.1c0,0,0,0.1,0,0.1c0,0,0,0-0.1,0c0,0-0.1,0-0.1,0l-0.8,0.2c0,0-0.1,0-0.1,0c0,0-0.1,0-0.1,0
			c0,0,0,0-0.1-0.1c0,0,0-0.1,0-0.1l0,0l0.1,0.7l0,0c0,0,0-0.1,0-0.1c0,0,0-0.1,0-0.1c0,0,0,0,0.1-0.1c0.1,0,0.1,0,0.2,0l0.8-0.2
			C13.4,28,13.5,27.9,13.6,27.9"/>
		<path d="M12.2,27.1C12.1,27.1,12.1,27.1,12.2,27.1C12.1,27,12,27,12,26.9l0,0l0.1,0.7l0,0
			c0,0,0,0,0,0c0,0,0-0.1,0-0.1c0,0,0.1-0.1,0.1-0.1l0.1-0.1l0.4-0.4l0.4,0.2c0.1,0.1,0.2,0.1,0.3,0.2c0,0,0.1,0,0.1,0.1
			c0,0,0,0.1,0,0.1l0,0l-0.1-0.5l0,0c0,0,0,0.1,0,0.1c0,0,0,0.1-0.1,0.1c0,0-0.1,0-0.1,0c0,0-0.1,0-0.1-0.1l-0.4-0.2l0.3-0.3
			c0,0,0,0,0.1-0.1c0,0,0,0,0,0c0,0,0.1,0,0.1,0c0,0,0,0.1,0.1,0.1l0,0l-0.1-0.7l0,0c0,0,0,0.1,0,0.1c0,0,0,0.1,0,0.1
			c0,0.1-0.1,0.2-0.2,0.2l-0.5,0.5l-0.3-0.2l-0.1-0.1c-0.1,0-0.2-0.1-0.2-0.1c0,0,0-0.1,0-0.1l0,0l0.1,0.5l0,0c0,0,0-0.1,0-0.1
			c0,0,0-0.1,0.1-0.1c0,0,0.1,0,0.1,0c0.1,0,0.1,0.1,0.2,0.1l0.2,0.1L12.3,27C12.3,27,12.2,27.1,12.2,27.1"/>
		<path d="M16.5,32.1L16.5,32.1l-1.1,0.4c-0.1,0-0.1,0.1-0.2,0.1c0,0-0.1,0-0.1,0c0,0-0.1,0-0.1,0
			c0,0-0.1,0-0.1-0.1l0,0l0.3,0.4l0,0c0,0,0,0,0-0.1c0,0,0,0,0-0.1c0,0,0,0,0-0.1c0,0,0,0,0-0.1c0.1,0,0.1-0.1,0.2-0.1l0.8-0.3
			L15.8,33c0,0,0,0.1,0,0.1c0,0,0,0,0,0c0,0,0,0-0.1,0c0,0-0.1,0-0.1,0c0,0-0.1,0-0.1-0.1l0,0l0.5,0.5l0,0c0,0-0.1-0.1-0.1-0.1
			c0,0,0-0.1,0-0.1c0-0.1,0.1-0.2,0.1-0.3L16.5,32.1z"/>
		<path d="M14.8,32.4C14.8,32.4,14.8,32.4,14.8,32.4c-0.1-0.1-0.1-0.1-0.1-0.2c0,0,0-0.1,0-0.1
			c0,0,0.1-0.1,0.1-0.1l0.6-0.5c0,0,0.1-0.1,0.1-0.1c0,0,0.1,0,0.1,0c0,0,0.1,0,0.1,0c0,0,0.1,0,0.1,0.1l0,0l-0.5-0.5l0,0
			c0,0,0,0.1,0.1,0.1c0,0,0,0.1,0,0.1c0,0,0,0.1,0,0.1c0,0-0.1,0.1-0.1,0.1l-0.6,0.5c0,0-0.1,0.1-0.1,0.1c0,0-0.1,0-0.1,0
			c0,0-0.1,0-0.1,0c0,0-0.1,0-0.1-0.1l0,0L14.8,32.4L14.8,32.4z"/>
		<path d="M14.4,31.5l0.6-0.5c0,0,0.1-0.1,0.1-0.1c0,0,0.1,0,0.1,0c0,0,0.1,0,0.1,0c0,0,0.1,0,0.1,0.1
			l0,0l-0.5-0.5l0,0c0,0,0,0.1,0.1,0.1c0,0,0,0.1,0,0.1c0,0,0,0.1,0,0.1c0,0-0.1,0.1-0.1,0.1l-0.6,0.5c0,0-0.1,0.1-0.1,0.1
			c0,0-0.1,0-0.1,0c0,0-0.1,0-0.1,0c0,0-0.1,0-0.1-0.1l0,0l0.5,0.5l0,0c0,0,0-0.1-0.1-0.1c0,0,0-0.1,0-0.1c0,0,0-0.1,0-0.1
			C14.3,31.6,14.3,31.5,14.4,31.5"/>
		<path d="M13.8,30.9l0.6-0.5c0,0,0.1-0.1,0.1-0.1c0,0,0.1,0,0.1,0c0,0,0.1,0,0.1,0c0,0,0.1,0,0.1,0.1
			l0,0l-0.5-0.5l0,0c0,0,0,0.1,0.1,0.1c0,0,0,0.1,0,0.1c0,0,0,0.1,0,0.1c0,0-0.1,0.1-0.1,0.1l-0.6,0.5c0,0-0.1,0.1-0.1,0.1
			c0,0-0.1,0-0.1,0c0,0-0.1,0-0.1,0c0,0-0.1,0-0.1-0.1l0,0l0.5,0.5l0,0c0,0,0-0.1-0.1-0.1c0,0,0-0.1,0-0.1c0,0,0-0.1,0-0.1
			C13.7,31,13.8,30.9,13.8,30.9"/>
		<path d="M20.3,35.5c0,0-0.1,0-0.1-0.1c0,0,0,0-0.1-0.1c0-0.1,0-0.2,0-0.3L20,33.9l0,0l-0.7,0.9
			c-0.1,0.1-0.1,0.1-0.1,0.2c0,0-0.1,0.1-0.1,0.1c0,0-0.1,0-0.1,0c0,0-0.1,0-0.1,0l0,0l0.5,0.1l0,0c0,0,0,0-0.1,0c0,0,0,0,0,0
			c0,0,0,0,0-0.1c0,0,0-0.1,0-0.1c0-0.1,0.1-0.1,0.1-0.2l0.5-0.6l0,0.9c0,0.1,0,0.1,0,0.1c0,0,0,0,0,0c0,0,0,0,0,0.1c0,0,0,0-0.1,0
			c0,0-0.1,0-0.1,0l0,0L20.3,35.5L20.3,35.5z"/>
		<path d="M18.9,33.9c0-0.1,0-0.1,0.1-0.2c0,0,0-0.1,0.1-0.1c0,0,0.1,0,0.1,0c0,0,0.1,0,0.1,0l0,0
			l-0.7-0.2l0,0c0,0,0.1,0,0.1,0.1c0,0,0,0.1,0.1,0.1c0,0,0,0.1,0,0.1c0,0,0,0.1,0,0.1l-0.2,0.8c0,0,0,0.1,0,0.1c0,0,0,0.1-0.1,0.1
			c0,0-0.1,0-0.1,0c0,0-0.1,0-0.1,0l0,0l0.7,0.2l0,0c0,0-0.1,0-0.1,0c0,0,0,0-0.1-0.1c0,0,0-0.1,0-0.1c0-0.1,0-0.1,0-0.2L18.9,33.9z
			"/>
		<path d="M17.9,33.6l-0.2,0.8c0,0,0,0.1,0,0.1c0,0,0,0.1-0.1,0.1c0,0-0.1,0-0.1,0c0,0-0.1,0-0.1,0
			l0,0l0.7,0.2l0,0c0,0-0.1,0-0.1,0c0,0,0,0-0.1-0.1c0,0,0-0.1,0-0.1c0-0.1,0-0.1,0-0.2l0.2-0.8c0-0.1,0-0.1,0.1-0.2
			c0,0,0-0.1,0.1-0.1c0,0,0.1,0,0.1,0c0,0,0.1,0,0.1,0l0,0l-0.7-0.2l0,0c0,0,0.1,0,0.1,0.1c0,0,0,0.1,0.1,0.1c0,0,0,0.1,0,0.1
			C17.9,33.5,17.9,33.5,17.9,33.6"/>
		<path d="M25,16.3L24.7,17c0,0.1,0,0.1-0.1,0.2c0,0,0,0.1-0.1,0.1c0,0-0.1,0-0.1,0c0,0-0.1,0-0.1,0
			l0,0l0.7,0.3l0,0c0,0-0.1,0-0.1-0.1c0,0,0-0.1,0-0.1c0,0,0-0.1,0-0.1c0,0,0-0.1,0-0.1l0.3-0.8c0,0,0-0.1,0.1-0.1
			c0,0,0.1-0.1,0.1-0.1c0,0,0.1,0,0.1,0c0,0,0.1,0,0.1,0l0,0l-0.7-0.3l0,0c0,0,0.1,0,0.1,0.1c0,0,0,0,0,0.1c0,0,0,0.1,0,0.1
			C25,16.2,25,16.2,25,16.3"/>
		<path d="M24.5,35.1c0,0-0.1,0-0.1,0l0,0l0.7-0.1l0,0c0,0-0.1,0-0.1,0c0,0-0.1,0-0.1,0
			c-0.1-0.1-0.1-0.2-0.2-0.2l-0.6-1l0,0l-0.2,1.1c0,0.1,0,0.2,0,0.2c0,0,0,0.1,0,0.1c0,0,0,0.1-0.1,0.1c0,0-0.1,0-0.1,0l0,0l0.5-0.1
			l0,0c0,0,0,0-0.1,0c0,0,0,0-0.1,0c0,0,0,0,0,0c0,0,0,0,0-0.1c0-0.1,0-0.2,0-0.2l0.2-0.8l0.5,0.8c0,0,0,0.1,0.1,0.1c0,0,0,0,0,0
			C24.5,35,24.5,35,24.5,35.1C24.5,35.1,24.5,35.1,24.5,35.1"/>
		<path d="M22.9,35.5C22.9,35.5,22.8,35.5,22.9,35.5L22.9,35.5l0.6-0.1l0,0c0,0-0.1,0-0.1,0
			c-0.1,0-0.1-0.1-0.1-0.1c0-0.1,0-0.1,0-0.2L23,34.3c0-0.1,0-0.1,0-0.2c0,0,0-0.1,0-0.1c0,0,0,0,0.1-0.1c0,0,0.1,0,0.1,0l0,0
			l-0.7,0.1l0,0c0,0,0.1,0,0.1,0c0,0,0.1,0,0.1,0c0,0,0,0,0,0.1c0,0,0,0.1,0,0.1l0.2,0.8c0,0,0,0.1,0,0.1C23,35.3,23,35.4,22.9,35.5
			C22.9,35.4,22.9,35.4,22.9,35.5"/>
		<path d="M19.6,14.8c0.1,0,0.2-0.1,0.1-0.2c0-0.1-0.1-0.2-0.2-0.1c-0.1,0-0.2,0.1-0.1,0.2
			C19.4,14.8,19.5,14.8,19.6,14.8C19.6,14.8,19.6,14.8,19.6,14.8"/>
		<path d="M23.9,35.9c-0.1,0-0.2,0.1-0.1,0.2c0,0.1,0.1,0.2,0.2,0.1c0.1,0,0.2-0.1,0.1-0.2
			C24.1,36,24,35.9,23.9,35.9C23.9,35.9,23.9,35.9,23.9,35.9"/>
		<path d="M11.1,27.7c0.1,0,0.2-0.1,0.1-0.2c0-0.1-0.1-0.2-0.2-0.1c-0.1,0-0.2,0.1-0.1,0.2
			C10.9,27.7,11,27.7,11.1,27.7C11.1,27.7,11.1,27.7,11.1,27.7"/>
		<path d="M12.8,19.4c0.1-0.1,0-0.2,0-0.2c-0.1-0.1-0.2,0-0.2,0c-0.1,0.1,0,0.2,0,0.2
			C12.6,19.5,12.7,19.5,12.8,19.4C12.8,19.4,12.8,19.4,12.8,19.4"/>
		<path d="M28,16.3c0.1-0.1,0-0.2,0-0.2c-0.1-0.1-0.2,0-0.2,0c-0.1,0.1,0,0.2,0,0.2
			C27.8,16.4,27.9,16.4,28,16.3C28,16.3,28,16.3,28,16.3"/>
		<path d="M15.6,34.4c-0.1,0.1,0,0.2,0,0.2c0.1,0.1,0.2,0,0.2,0c0.1-0.1,0-0.2,0-0.2
			C15.7,34.3,15.6,34.3,15.6,34.4C15.6,34.4,15.6,34.4,15.6,34.4"/>
		<path d="M17.2,15.6c0.1,0,0.1-0.1,0.1-0.2c0-0.1-0.1-0.1-0.2-0.1c-0.1,0-0.1,0.1-0.1,0.2
			C17,15.6,17.1,15.6,17.2,15.6"/>
		<path d="M26.3,35.1c-0.1,0-0.1,0.1-0.1,0.2c0,0.1,0.1,0.1,0.2,0.1c0.1,0,0.1-0.1,0.1-0.2
			C26.5,35.1,26.4,35.1,26.3,35.1C26.3,35.1,26.3,35.1,26.3,35.1"/>
		<path d="M11.8,29.8c-0.1,0-0.1,0.1-0.1,0.2c0,0.1,0.1,0.1,0.2,0.1c0.1,0,0.1-0.1,0.1-0.2
			C12,29.8,11.9,29.8,11.8,29.8C11.8,29.8,11.8,29.8,11.8,29.8"/>
		<path d="M11.6,21.7c0-0.1,0-0.2-0.1-0.2c-0.1,0-0.2,0-0.2,0.1c0,0.1,0,0.2,0.1,0.2c0,0,0,0,0,0
			C11.5,21.8,11.6,21.8,11.6,21.7"/>
		<path d="M25.7,15.1c0-0.1,0-0.2-0.1-0.2c-0.1,0-0.2,0-0.2,0.1c0,0.1,0,0.2,0.1,0.2c0,0,0,0,0,0
			C25.5,15.3,25.6,15.2,25.7,15.1"/>
		<path d="M18,35.8c0.1,0,0.2,0,0.2-0.1c0-0.1,0-0.2-0.1-0.2c-0.1,0-0.2,0-0.2,0.1c0,0,0,0,0,0
			C17.8,35.7,17.9,35.8,18,35.8"/>
		<path d="M14.7,17.2c0.1-0.1,0.1-0.2,0-0.2c-0.1-0.1-0.2-0.1-0.2,0c-0.1,0.1-0.1,0.2,0,0.2
			C14.5,17.3,14.6,17.3,14.7,17.2C14.7,17.2,14.7,17.2,14.7,17.2"/>
		<path d="M13.4,32.4c-0.1,0.1-0.1,0.2,0,0.2c0.1,0.1,0.2,0.1,0.2,0c0.1-0.1,0.1-0.2,0-0.2
			C13.6,32.4,13.5,32.4,13.4,32.4C13.4,32.4,13.4,32.4,13.4,32.4"/>
		<path d="M10.7,24.6c0,0.1,0.1,0.2,0.2,0.2c0.1,0,0.2-0.1,0.2-0.2c0-0.1-0.1-0.2-0.2-0.2
			C10.8,24.4,10.7,24.5,10.7,24.6C10.7,24.6,10.7,24.6,10.7,24.6"/>
		<path d="M22.7,14.5c0-0.1-0.1-0.2-0.2-0.2c-0.1,0-0.2,0.1-0.2,0.2c0,0.1,0.1,0.2,0.2,0.2
			C22.6,14.6,22.7,14.6,22.7,14.5C22.7,14.5,22.7,14.5,22.7,14.5"/>
		<path d="M20.8,36.3c0,0.1,0.1,0.2,0.2,0.2c0.1,0,0.2-0.1,0.2-0.2c0-0.1-0.1-0.2-0.2-0.2
			C20.9,36.1,20.8,36.2,20.8,36.3C20.8,36.3,20.8,36.3,20.8,36.3"/>
		<path d="M15.8,16.4c0.1-0.1,0.1-0.2,0-0.2c-0.1-0.1-0.2-0.1-0.2,0c-0.1,0.1-0.1,0.2,0,0.2
			C15.7,16.4,15.8,16.4,15.8,16.4"/>
		<path d="M27.7,34.4c-0.1,0.1-0.1,0.2,0,0.2c0.1,0.1,0.2,0.1,0.2,0c0.1-0.1,0.1-0.2,0-0.2
			C27.9,34.3,27.8,34.3,27.7,34.4"/>
		<path d="M12.5,31.2c-0.1,0.1-0.1,0.2,0,0.2c0.1,0.1,0.2,0.1,0.2,0c0.1-0.1,0.1-0.2,0-0.2
			C12.7,31.2,12.6,31.2,12.5,31.2C12.5,31.2,12.5,31.2,12.5,31.2"/>
		<path d="M11.2,23.2c0-0.1,0-0.2-0.1-0.2c-0.1,0-0.2,0-0.2,0.1c0,0.1,0,0.2,0.1,0.2
			C11.1,23.3,11.2,23.3,11.2,23.2C11.2,23.2,11.2,23.2,11.2,23.2"/>
		<path d="M24.1,14.7c0-0.1,0-0.2-0.1-0.2c-0.1,0-0.2,0-0.2,0.1c0,0.1,0,0.2,0.1,0.2
			C24,14.8,24.1,14.8,24.1,14.7"/>
		<path d="M19.4,36c0,0.1,0,0.2,0.1,0.2c0.1,0,0.2,0,0.2-0.1c0-0.1,0-0.2-0.1-0.2
			C19.5,35.9,19.4,36,19.4,36C19.4,36,19.4,36,19.4,36"/>
		<path d="M21.3,14.4c0-0.1-0.1-0.2-0.2-0.2s-0.2,0.1-0.2,0.2c0,0.1,0.1,0.2,0.2,0.2
			C21.2,14.6,21.3,14.5,21.3,14.4C21.3,14.4,21.3,14.4,21.3,14.4"/>
		<path d="M22.4,36.1c-0.1,0-0.2,0.1-0.2,0.2c0,0.1,0.1,0.2,0.2,0.2c0.1,0,0.2-0.1,0.2-0.2
			C22.6,36.2,22.5,36.1,22.4,36.1C22.4,36.1,22.4,36.1,22.4,36.1"/>
		<path d="M10.9,26.2c0.1,0,0.2-0.1,0.2-0.2c0-0.1-0.1-0.2-0.2-0.2c-0.1,0-0.2,0.1-0.2,0.2
			C10.7,26.1,10.8,26.2,10.9,26.2C10.9,26.2,10.9,26.2,10.9,26.2"/>
		<path d="M13.7,18.2c0.1-0.1,0.1-0.2,0-0.2c-0.1-0.1-0.2-0.1-0.2,0c-0.1,0.1-0.1,0.2,0,0.2
			C13.5,18.3,13.6,18.3,13.7,18.2C13.7,18.2,13.7,18.2,13.7,18.2"/>
		<path d="M29.1,17.3c0.1-0.1,0.1-0.2,0-0.2c-0.1-0.1-0.2-0.1-0.2,0c-0.1,0.1-0.1,0.2,0,0.2
			C29,17.4,29.1,17.4,29.1,17.3C29.1,17.3,29.1,17.3,29.1,17.3"/>
		<path d="M14.4,33.4c-0.1,0.1-0.1,0.2,0,0.2c0.1,0.1,0.2,0.1,0.2,0c0.1-0.1,0.1-0.2,0-0.2
			C14.6,33.4,14.4,33.4,14.4,33.4C14.4,33.4,14.4,33.4,14.4,33.4"/>
		<path d="M18.3,14.8c-0.1,0-0.1,0.1-0.1,0.2c0,0.1,0.1,0.1,0.2,0.1c0.1,0,0.1-0.1,0.1-0.2
			C18.5,14.8,18.4,14.8,18.3,14.8C18.3,14.8,18.3,14.8,18.3,14.8"/>
		<path d="M25.2,35.9c0.1,0,0.1-0.1,0.1-0.2c0-0.1-0.1-0.1-0.2-0.1c-0.1,0-0.1,0.1-0.1,0.2
			C25,35.9,25.1,36,25.2,35.9C25.2,35.9,25.2,35.9,25.2,35.9"/>
		<path d="M11.4,28.9c0.1,0,0.1-0.1,0.1-0.2c0-0.1-0.1-0.1-0.2-0.1c-0.1,0-0.1,0.1-0.1,0.2
			C11.2,28.9,11.3,28.9,11.4,28.9C11.4,28.9,11.4,28.9,11.4,28.9"/>
		<path d="M12.1,20.2c-0.1,0-0.2,0-0.2,0.1c0,0.1,0,0.2,0.1,0.2c0.1,0,0.2,0,0.2-0.1
			C12.2,20.4,12.2,20.3,12.1,20.2C12.1,20.2,12.1,20.2,12.1,20.2"/>
		<path d="M26.9,15.7c0-0.1,0-0.2-0.1-0.2c-0.1,0-0.2,0-0.2,0.1c0,0.1,0,0.2,0.1,0.2
			C26.7,15.8,26.8,15.8,26.9,15.7C26.9,15.7,26.9,15.7,26.9,15.7"/>
		<path d="M16.6,35c0,0.1,0,0.2,0.1,0.2c0.1,0,0.2,0,0.2-0.1c0-0.1,0-0.2-0.1-0.2
			C16.8,34.9,16.7,35,16.6,35C16.6,35,16.6,35,16.6,35"/>
</g>
</svg>
